#!OML:ASF H:\Male1\Project 1\Capture day 1\Session 1\Male1.ASF
:FULLY-SPECIFIED
:DEGREES
1080
root 15.9234 15.2927 3.47258 179.537 57.2618 184.898
lowerback 8.46027 0.848478 0.352789
upperback 5.52425 1.50093 -3.17164
thorax 1.07687 0.962368 -3.58563
lowerneck -5.83175 4.77018 6.00945
upperneck 6.7086 6.36275 -5.82883
head 3.69189 3.10345 -2.69575
rclavicle -2.00773e-014 1.27222e-014
rhumerus 39.3391 -15.8071 -33.8572
rradius 136.622
rwrist -26.0122
rhand -38.4912 29.9389
rfingers 7.12502
rthumb -11.513 0.275067
lclavicle -2.00773e-014 1.27222e-014
lhumerus 37.1547 23.682 23.9827
lradius 139.618
lwrist 14.6329
lhand -52.2478 1.83762
lfingers 7.12502
lthumb -24.745 30.2571
rfemur -4.61592 13.0598 23.4679
rtibia 25.9128
rfoot -20.2475 -22.5905
rtoes -30.7203
lfemur -3.50625 -19.1406 -12.5553
ltibia 27.0285
lfoot -18.8334 18.6146
ltoes -22.2822
1081
root 15.932 15.3044 3.46478 179.823 57.9217 185.297
lowerback 8.49124 0.94198 0.874621
upperback 5.38282 1.64427 -3.24638
thorax 0.939962 1.0407 -3.97215
lowerneck -5.65475 4.86273 6.89381
upperneck 6.64574 6.57087 -7.60163
head 3.37937 3.14891 -3.1019
rclavicle 2.04748e-014 -2.22639e-014
rhumerus 39.1004 -15.9766 -33.5117
rradius 136.612
rwrist -26.4599
rhand -38.6059 30.0868
rfingers 7.12502
rthumb -11.6236 0.429158
lclavicle 2.04748e-014 -2.22639e-014
lhumerus 37.2286 23.8637 23.7434
lradius 139.458
lwrist 14.5508
lhand -49.9165 -1.16385
lfingers 7.12502
lthumb -22.509 27.5442
rfemur -4.33225 13.6736 23.7651
rtibia 25.4951
rfoot -19.9476 -22.7609
rtoes -31.4683
lfemur -2.7574 -19.4836 -12.5772
ltibia 26.3523
lfoot -18.8925 19.3733
ltoes -21.5568
1082
root 15.9375 15.3163 3.45775 179.159 58.6914 184.506
lowerback 8.47332 1.10171 0.66385
upperback 5.24632 1.83654 -3.4631
thorax 0.824134 1.1315 -4.09473
lowerneck -5.59102 4.94022 7.20132
upperneck 6.46508 6.67511 -7.98374
head 3.34567 3.19603 -3.26465
rclavicle 5.98342e-014 2.22639e-014
rhumerus 38.8631 -16.6037 -33.2895
rradius 136.742
rwrist -27.3852
rhand -38.469 30.2031
rfingers 7.12502
rthumb -11.4916 0.538069
lclavicle 5.98342e-014 2.22639e-014
lhumerus 37.2974 24.1766 23.4366
lradius 139.293
lwrist 14.5193
lhand -49.4632 -2.9552
lfingers 7.12502
lthumb -22.0738 25.8049
rfemur -4.28392 14.3611 23.3507
rtibia 25.3228
rfoot -19.7394 -22.8261
rtoes -32.0523
lfemur -2.05381 -19.7508 -13.291
ltibia 25.6682
lfoot -18.7558 20.3226
ltoes -21.4913
1083
root 15.9434 15.3239 3.44551 177.948 59.5058 183.131
lowerback 8.39253 1.3138 0.213157
upperback 5.16165 2.09295 -3.74646
thorax 0.796313 1.25544 -4.15298
lowerneck -5.77741 4.93018 7.03469
upperneck 6.64242 6.62612 -7.46432
head 3.40274 3.1809 -3.07652
rclavicle 6.50026e-014 -1.27222e-014
rhumerus 38.4869 -17.3343 -32.992
rradius 137.059
rwrist -28.1774
rhand -38.6501 29.9995
rfingers 7.12502
rthumb -11.6663 0.344317
lclavicle 6.50026e-014 -1.27222e-014
lhumerus 37.4112 24.5767 23.2072
lradius 139.299
lwrist 14.8448
lhand -49.3061 -2.42663
lfingers 7.12502
lthumb -21.923 26.3512
rfemur -4.32583 14.9213 22.5814
rtibia 25.3969
rfoot -19.6737 -22.6445
rtoes -32.4696
lfemur -1.30568 -19.8445 -14.3345
ltibia 24.9867
lfoot -18.4403 21.24
ltoes -21.7865
1084
root 15.9474 15.3251 3.42575 177.031 60.2377 182.117
lowerback 8.22372 1.48012 0.0361174
upperback 5.15353 2.31168 -3.93911
thorax 0.899417 1.36759 -4.26348
lowerneck -6.24071 4.81358 6.33097
upperneck 7.182 6.40506 -6.0694
head 3.55717 3.09677 -2.53688
rclavicle 2.18663e-015 -1.43125e-014
rhumerus 38.2272 -17.655 -32.6634
rradius 137.313
rwrist -28.3576
rhand -39.1674 29.8558
rfingers 7.12502
rthumb -12.165 0.229496
lclavicle 2.18663e-015 -1.43125e-014
lhumerus 37.4768 24.9836 23.0544
lradius 139.365
lwrist 15.3047
lhand -49.0837 -2.26737
lfingers 7.12502
lthumb -21.7094 26.5353
rfemur -4.46351 15.1415 21.9621
rtibia 25.6747
rfoot -19.6412 -22.243
rtoes -33.1982
lfemur -0.576409 -19.8773 -15.148
ltibia 24.3307
lfoot -18.7357 21.7093
ltoes -20.0107
1085
root 15.9469 15.3234 3.40716 176.65 60.9566 181.686
lowerback 8.05338 1.56635 0.0186106
upperback 5.17114 2.42882 -3.97501
thorax 1.02147 1.42742 -4.29187
lowerneck -6.00816 5.11983 7.05686
upperneck 6.28738 6.85397 -7.62169
head 3.35747 3.28328 -3.11176
rclavicle -2.68359e-014 7.95139e-015
rhumerus 38.3213 -17.7144 -32.6256
rradius 137.453
rwrist -28.4384
rhand -39.2802 30.0696
rfingers 7.12502
rthumb -12.2739 0.449813
lclavicle -2.68359e-014 7.95139e-015
lhumerus 37.2502 25.4042 22.7457
lradius 139.427
lwrist 15.5771
lhand -48.5321 -3.91095
lfingers 7.12502
lthumb -21.1796 24.9521
rfemur -4.68644 15.415 21.6759
rtibia 25.9839
rfoot -19.5422 -21.9427
rtoes -34.1526
lfemur -0.0265324 -19.8427 -15.5662
ltibia 23.8721
lfoot -19.1296 21.9681
ltoes -18.1394
